<svg width="60" height="60" viewBox="0 0 60 60" fill="none" xmlns="http://www.w3.org/2000/svg">
<circle cx="30" cy="30" r="30" fill="#4C496F"/>
<path d="M44 12C45.0609 12 46.0783 12.4214 46.8284 13.1716C47.5786 13.9217 48 14.9391 48 16V44C48 45.0609 47.5786 46.0783 46.8284 46.8284C46.0783 47.5786 45.0609 48 44 48H16C14.9391 48 13.9217 47.5786 13.1716 46.8284C12.4214 46.0783 12 45.0609 12 44V16C12 14.9391 12.4214 13.9217 13.1716 13.1716C13.9217 12.4214 14.9391 12 16 12H44ZM43 43V32.4C43 30.6708 42.3131 29.0124 41.0903 27.7897C39.8676 26.5669 38.2092 25.88 36.48 25.88C34.78 25.88 32.8 26.92 31.84 28.48V26.26H26.26V43H31.84V33.14C31.84 31.6 33.08 30.34 34.62 30.34C35.3626 30.34 36.0748 30.635 36.5999 31.1601C37.125 31.6852 37.42 32.3974 37.42 33.14V43H43ZM19.76 23.12C20.6511 23.12 21.5058 22.766 22.1359 22.1359C22.766 21.5058 23.12 20.6511 23.12 19.76C23.12 17.9 21.62 16.38 19.76 16.38C18.8636 16.38 18.0039 16.7361 17.37 17.37C16.7361 18.0039 16.38 18.8636 16.38 19.76C16.38 21.62 17.9 23.12 19.76 23.12ZM22.54 43V26.26H17V43H22.54Z" fill="#E6E6E6"/>
</svg>
