<svg width="60" height="60" viewBox="0 0 60 60" fill="none" xmlns="http://www.w3.org/2000/svg">
<circle cx="30" cy="30" r="30" fill="#4C496F"/>
<path d="M30 29C28.6739 29 27.4021 28.4732 26.4645 27.5355C25.5268 26.5979 25 25.3261 25 24C25 22.6739 25.5268 21.4021 26.4645 20.4645C27.4021 19.5268 28.6739 19 30 19C31.3261 19 32.5979 19.5268 33.5355 20.4645C34.4732 21.4021 35 22.6739 35 24C35 24.6566 34.8707 25.3068 34.6194 25.9134C34.3681 26.52 33.9998 27.0712 33.5355 27.5355C33.0712 27.9998 32.52 28.3681 31.9134 28.6194C31.3068 28.8707 30.6566 29 30 29ZM30 10C26.287 10 22.726 11.475 20.1005 14.1005C17.475 16.726 16 20.287 16 24C16 34.5 30 50 30 50C30 50 44 34.5 44 24C44 20.287 42.525 16.726 39.8995 14.1005C37.274 11.475 33.713 10 30 10Z" fill="#E6E6E6"/>
</svg>
