<svg width="60" height="60" viewBox="0 0 60 60" fill="none" xmlns="http://www.w3.org/2000/svg">
<circle cx="30" cy="30" r="30" fill="#4C496F"/>
<path d="M50 21.0701V40.0001C50.0001 41.5305 49.4153 43.0031 48.3654 44.1166C47.3155 45.2301 45.8798 45.9003 44.352 45.9901L44 46.0001H16C14.4696 46.0002 12.997 45.4154 11.8835 44.3655C10.77 43.3156 10.0998 41.8799 10.01 40.3521L10 40.0001V21.0701L28.89 33.6641L29.122 33.7961C29.3954 33.9297 29.6957 33.9991 30 33.9991C30.3043 33.9991 30.6046 33.9297 30.878 33.7961L31.11 33.6641L50 21.0701Z" fill="#E6E6E6"/>
<path d="M44 14C46.16 14 48.054 15.14 49.11 16.854L30 29.594L10.89 16.854C11.3916 16.0396 12.0806 15.357 12.8996 14.863C13.7185 14.369 14.6437 14.0779 15.598 14.014L16 14H44Z" fill="#E6E6E6"/>
</svg>
