<svg width="60" height="60" viewBox="0 0 60 60" fill="none" xmlns="http://www.w3.org/2000/svg">
<circle cx="30" cy="30" r="30" fill="#4C496F"/>
<path d="M44.4073 36.5L39.3273 35.92C38.73 35.8498 38.1246 35.916 37.5565 36.1134C36.9884 36.3109 36.4724 36.6345 36.0473 37.06L32.3673 40.74C26.6901 37.8519 22.0755 33.2372 19.1873 27.56L22.8873 23.86C23.7473 23 24.1673 21.8 24.0273 20.58L23.4473 15.54C23.3344 14.5642 22.8663 13.6641 22.1323 13.0112C21.3983 12.3583 20.4497 11.9984 19.4673 12H16.0073C13.7473 12 11.8673 13.88 12.0073 16.14C13.0673 33.22 26.7273 46.86 43.7873 47.92C46.0473 48.06 47.9273 46.18 47.9273 43.92V40.46C47.9473 38.44 46.4273 36.74 44.4073 36.5Z" fill="#E6E6E6"/>
</svg>
